<svg width="219" height="219" viewBox="0 0 219 219" fill="none" xmlns="http://www.w3.org/2000/svg">
<g clip-path="url(#clip0_292_6)">
<path d="M109.5 0C87.843 0 66.6723 6.42206 48.6651 18.4541C30.6579 30.4861 16.623 47.5877 8.33524 67.5962C0.0474443 87.6047 -2.12102 109.621 2.10406 130.862C6.32914 152.103 16.758 171.614 32.0719 186.928C47.3857 202.242 66.8967 212.671 88.1377 216.896C109.379 221.121 131.395 218.953 151.404 210.665C171.412 202.377 188.514 188.342 200.546 170.335C212.578 152.328 219 131.157 219 109.5C218.962 80.4706 207.413 52.6411 186.886 32.1142C166.359 11.5873 138.529 0.0383877 109.5 0V0ZM124.009 143.308L114.291 153.026C111.146 156.216 107.394 158.743 103.257 160.459C99.1191 162.175 94.6798 163.045 90.2007 163.018C83.4407 163.029 76.8296 161.034 71.2039 157.285C65.5782 153.537 61.1908 148.204 58.5971 141.962C56.0034 135.719 55.3198 128.847 56.6329 122.216C57.946 115.585 61.1968 109.492 65.9738 104.709L75.6919 94.9912C76.3098 94.3424 77.053 93.8258 77.8765 93.4729C78.7 93.1199 79.5866 92.9379 80.4826 92.9379C81.3785 92.9379 82.2651 93.1199 83.0886 93.4729C83.9121 93.8258 84.6553 94.3424 85.2732 94.9912C85.9228 95.6228 86.4393 96.3782 86.7919 97.2128C87.1445 98.0474 87.3262 98.9443 87.3262 99.8503C87.3262 100.756 87.1445 101.653 86.7919 102.488C86.4393 103.322 85.9228 104.078 85.2732 104.709L75.5551 114.291C71.7618 118.165 69.6473 123.377 69.6694 128.799C69.6329 131.488 70.1348 134.157 71.1456 136.649C72.1564 139.14 73.6557 141.405 75.5551 143.308C77.4664 145.228 79.738 146.751 82.2396 147.79C84.7412 148.83 87.4234 149.365 90.1322 149.365C92.8411 149.365 95.5233 148.83 98.0249 147.79C100.526 146.751 102.798 145.228 104.709 143.308L114.291 133.727C114.922 133.077 115.678 132.561 116.512 132.208C117.347 131.856 118.244 131.674 119.15 131.674C120.056 131.674 120.953 131.856 121.787 132.208C122.622 132.561 123.377 133.077 124.009 133.727C124.658 134.345 125.174 135.088 125.527 135.911C125.88 136.735 126.062 137.622 126.062 138.518C126.062 139.413 125.88 140.3 125.527 141.124C125.174 141.947 124.658 142.69 124.009 143.308ZM128.799 99.7819L99.7819 128.799C99.1641 129.448 98.4209 129.965 97.5974 130.318C96.7739 130.671 95.8873 130.853 94.9913 130.853C94.0954 130.853 93.2087 130.671 92.3852 130.318C91.5617 129.965 90.8185 129.448 90.2007 128.799C89.5518 128.182 89.0353 127.438 88.6823 126.615C88.3294 125.791 88.1473 124.905 88.1473 124.009C88.1473 123.113 88.3294 122.226 88.6823 121.403C89.0353 120.579 89.5518 119.836 90.2007 119.218L119.218 90.2006C119.845 89.561 120.592 89.0521 121.417 88.7031C122.242 88.3542 123.127 88.1721 124.023 88.1676C124.918 88.1631 125.806 88.3362 126.634 88.6768C127.462 89.0174 128.215 89.5188 128.848 90.152C129.481 90.7852 129.983 91.5377 130.323 92.3659C130.664 93.1941 130.837 94.0816 130.832 94.9771C130.828 95.8726 130.646 96.7583 130.297 97.583C129.948 98.4077 129.439 99.1551 128.799 99.7819ZM153.026 114.291L143.308 124.009C142.698 124.667 141.956 125.19 141.131 125.543C140.305 125.897 139.415 126.074 138.518 126.062C137.622 126.06 136.736 125.878 135.912 125.525C135.089 125.172 134.346 124.656 133.727 124.009C133.077 123.377 132.561 122.622 132.208 121.787C131.856 120.953 131.674 120.056 131.674 119.15C131.674 118.244 131.856 117.347 132.208 116.512C132.561 115.678 133.077 114.922 133.727 114.291L143.445 104.709C147.238 100.835 149.353 95.6226 149.331 90.2006C149.367 87.5119 148.865 84.843 147.855 82.3513C146.844 79.8595 145.344 77.5953 143.445 75.6919C141.534 73.7723 139.262 72.2491 136.761 71.2098C134.259 70.1704 131.577 69.6354 128.868 69.6354C126.159 69.6354 123.477 70.1704 120.975 71.2098C118.474 72.2491 116.202 73.7723 114.291 75.6919L104.709 85.2731C104.078 85.9228 103.322 86.4392 102.488 86.7918C101.653 87.1445 100.756 87.3262 99.8504 87.3262C98.9443 87.3262 98.0475 87.1445 97.2129 86.7918C96.3783 86.4392 95.6229 85.9228 94.9913 85.2731C94.3425 84.6553 93.8259 83.9121 93.4729 83.0886C93.12 82.2651 92.938 81.3785 92.938 80.4825C92.938 79.5865 93.12 78.6999 93.4729 77.8764C93.8259 77.0529 94.3425 76.3097 94.9913 75.6919L104.709 65.9738C111.124 59.6008 119.803 56.0304 128.845 56.045C137.887 56.0597 146.555 59.6581 152.948 66.0518C159.342 72.4455 162.94 81.113 162.955 90.1551C162.97 99.1971 159.399 107.876 153.026 114.291Z" fill="url(#paint0_linear_292_6)"/>
</g>
<defs>
<linearGradient id="paint0_linear_292_6" x1="109.5" y1="0" x2="109.5" y2="219" gradientUnits="userSpaceOnUse">
<stop stop-color="#F0407B"/>
<stop offset="1" stop-color="#531F8F"/>
</linearGradient>
<clipPath id="clip0_292_6">
<rect width="219" height="219" fill="white"/>
</clipPath>
</defs>
</svg>
