<svg width="661" height="219" viewBox="0 0 661 219" fill="none" xmlns="http://www.w3.org/2000/svg">
<g clip-path="url(#clip0_292_10)">
<path d="M109.5 0C87.843 0 66.6723 6.42206 48.6651 18.4541C30.6579 30.4861 16.623 47.5877 8.33524 67.5962C0.0474443 87.6047 -2.12102 109.621 2.10406 130.862C6.32914 152.103 16.758 171.614 32.0719 186.928C47.3857 202.242 66.8967 212.671 88.1377 216.896C109.379 221.121 131.395 218.953 151.404 210.665C171.412 202.377 188.514 188.342 200.546 170.335C212.578 152.328 219 131.157 219 109.5C218.962 80.4706 207.413 52.6411 186.886 32.1142C166.359 11.5873 138.529 0.0383877 109.5 0V0ZM124.009 143.308L114.291 153.026C111.146 156.216 107.394 158.743 103.257 160.459C99.1191 162.175 94.6798 163.045 90.2007 163.018C83.4407 163.029 76.8295 161.034 71.2039 157.285C65.5782 153.537 61.1909 148.204 58.5971 141.962C56.0034 135.719 55.3198 128.847 56.6329 122.216C57.946 115.585 61.1968 109.492 65.9738 104.709L75.6919 94.9913C76.3098 94.3424 77.053 93.8258 77.8765 93.4729C78.7 93.1199 79.5866 92.9379 80.4826 92.9379C81.3785 92.9379 82.2651 93.1199 83.0886 93.4729C83.9121 93.8258 84.6553 94.3424 85.2732 94.9913C85.9228 95.6228 86.4393 96.3782 86.7919 97.2128C87.1445 98.0474 87.3262 98.9443 87.3262 99.8503C87.3262 100.756 87.1445 101.653 86.7919 102.488C86.4393 103.322 85.9228 104.078 85.2732 104.709L75.5551 114.291C71.7618 118.165 69.6473 123.377 69.6694 128.799C69.6329 131.488 70.1348 134.157 71.1456 136.649C72.1564 139.14 73.6557 141.405 75.5551 143.308C77.4664 145.228 79.738 146.751 82.2396 147.79C84.7412 148.83 87.4234 149.365 90.1322 149.365C92.8411 149.365 95.5233 148.83 98.0249 147.79C100.526 146.751 102.798 145.228 104.709 143.308L114.291 133.727C114.922 133.077 115.678 132.561 116.512 132.208C117.347 131.856 118.244 131.674 119.15 131.674C120.056 131.674 120.953 131.856 121.787 132.208C122.622 132.561 123.377 133.077 124.009 133.727C124.658 134.345 125.174 135.088 125.527 135.911C125.88 136.735 126.062 137.622 126.062 138.517C126.062 139.413 125.88 140.3 125.527 141.124C125.174 141.947 124.658 142.69 124.009 143.308V143.308ZM128.799 99.7819L99.7819 128.799C99.1641 129.448 98.4209 129.965 97.5974 130.318C96.7739 130.671 95.8873 130.853 94.9913 130.853C94.0954 130.853 93.2087 130.671 92.3852 130.318C91.5617 129.965 90.8185 129.448 90.2007 128.799C89.5518 128.182 89.0353 127.438 88.6823 126.615C88.3293 125.791 88.1473 124.905 88.1473 124.009C88.1473 123.113 88.3293 122.226 88.6823 121.403C89.0353 120.579 89.5518 119.836 90.2007 119.218L119.218 90.2006C119.845 89.561 120.592 89.0521 121.417 88.7031C122.242 88.3542 123.127 88.1722 124.023 88.1676C124.918 88.1631 125.806 88.3362 126.634 88.6768C127.462 89.0174 128.215 89.5188 128.848 90.152C129.481 90.7852 129.983 91.5377 130.323 92.3659C130.664 93.1941 130.837 94.0816 130.832 94.9771C130.828 95.8726 130.646 96.7583 130.297 97.583C129.948 98.4077 129.439 99.1551 128.799 99.7819V99.7819ZM153.026 114.291L143.308 124.009C142.698 124.667 141.956 125.19 141.131 125.543C140.305 125.897 139.415 126.074 138.518 126.062C137.622 126.06 136.736 125.878 135.912 125.525C135.089 125.172 134.346 124.656 133.727 124.009C133.077 123.377 132.561 122.622 132.208 121.787C131.856 120.953 131.674 120.056 131.674 119.15C131.674 118.244 131.856 117.347 132.208 116.512C132.561 115.678 133.077 114.922 133.727 114.291L143.445 104.709C147.238 100.835 149.353 95.6226 149.331 90.2006C149.367 87.5119 148.865 84.843 147.855 82.3513C146.844 79.8595 145.344 77.5953 143.445 75.6919C141.534 73.7723 139.262 72.2491 136.761 71.2098C134.259 70.1704 131.577 69.6354 128.868 69.6354C126.159 69.6354 123.477 70.1704 120.975 71.2098C118.474 72.2491 116.202 73.7723 114.291 75.6919L104.709 85.2731C104.078 85.9228 103.322 86.4392 102.488 86.7918C101.653 87.1445 100.756 87.3262 99.8504 87.3262C98.9443 87.3262 98.0475 87.1445 97.2129 86.7918C96.3783 86.4392 95.6229 85.9228 94.9913 85.2731C94.3425 84.6553 93.8259 83.9121 93.4729 83.0886C93.12 82.2651 92.938 81.3785 92.938 80.4825C92.938 79.5865 93.12 78.6999 93.4729 77.8764C93.8259 77.0529 94.3425 76.3097 94.9913 75.6919L104.709 65.9738C111.124 59.6008 119.803 56.0304 128.845 56.045C137.887 56.0596 146.555 59.6581 152.948 66.0518C159.342 72.4455 162.94 81.113 162.955 90.1551C162.97 99.1971 159.399 107.876 153.026 114.291V114.291Z" fill="url(#paint0_linear_292_10)"/>
</g>
<path d="M241.504 73.2727H263.273L281.739 118.301H282.591L301.057 73.2727H322.825V146H305.709V101.327H305.105L287.634 145.538H276.696L259.224 101.078H258.621V146H241.504V73.2727ZM349.166 146.923C345.686 146.923 342.596 146.343 339.897 145.183C337.222 144 335.103 142.224 333.541 139.857C332.002 137.465 331.233 134.471 331.233 130.872C331.233 127.842 331.765 125.285 332.831 123.202C333.896 121.118 335.364 119.426 337.234 118.124C339.104 116.821 341.259 115.839 343.697 115.176C346.136 114.49 348.74 114.028 351.51 113.791C354.611 113.507 357.109 113.211 359.002 112.903C360.896 112.572 362.27 112.11 363.122 111.518C363.998 110.903 364.436 110.039 364.436 108.926V108.749C364.436 106.926 363.808 105.517 362.554 104.523C361.299 103.528 359.606 103.031 357.475 103.031C355.179 103.031 353.333 103.528 351.936 104.523C350.539 105.517 349.651 106.89 349.272 108.642L333.257 108.074C333.73 104.759 334.949 101.8 336.914 99.196C338.903 96.5682 341.626 94.5085 345.082 93.017C348.562 91.5019 352.741 90.7443 357.618 90.7443C361.098 90.7443 364.306 91.1586 367.241 91.9872C370.177 92.7921 372.734 93.9759 374.912 95.5384C377.09 97.0772 378.77 98.9711 379.954 101.22C381.162 103.469 381.765 106.038 381.765 108.926V146H365.43V138.401H365.004C364.033 140.247 362.79 141.81 361.275 143.088C359.784 144.366 358.02 145.325 355.984 145.964C353.972 146.604 351.699 146.923 349.166 146.923ZM354.528 135.56C356.398 135.56 358.079 135.181 359.571 134.423C361.086 133.666 362.293 132.624 363.193 131.298C364.092 129.949 364.542 128.386 364.542 126.611V121.426C364.045 121.687 363.441 121.923 362.731 122.136C362.045 122.349 361.287 122.551 360.458 122.74C359.63 122.929 358.778 123.095 357.902 123.237C357.026 123.379 356.185 123.509 355.38 123.628C353.747 123.888 352.35 124.291 351.19 124.835C350.054 125.38 349.178 126.09 348.562 126.966C347.97 127.818 347.674 128.836 347.674 130.02C347.674 131.819 348.314 133.192 349.592 134.139C350.894 135.086 352.539 135.56 354.528 135.56ZM408.044 131.689L408.115 110.986H410.529L425.87 91.4545H445.544L422.745 119.438H418.164L408.044 131.689ZM392.383 146V73.2727H409.748V146H392.383ZM426.261 146L411.985 123.344L423.42 111.021L446.325 146H426.261ZM475.009 147.03C469.304 147.03 464.379 145.905 460.237 143.656C456.117 141.384 452.945 138.152 450.719 133.962C448.518 129.748 447.417 124.741 447.417 118.94C447.417 113.306 448.53 108.382 450.755 104.168C452.98 99.9299 456.117 96.6392 460.165 94.2955C464.214 91.928 468.984 90.7443 474.477 90.7443C478.359 90.7443 481.91 91.348 485.13 92.5554C488.35 93.7628 491.131 95.5502 493.475 97.9176C495.819 100.285 497.642 103.209 498.944 106.689C500.246 110.145 500.897 114.111 500.897 118.585V122.918H453.489V112.832H484.739C484.716 110.986 484.278 109.34 483.425 107.896C482.573 106.452 481.401 105.328 479.91 104.523C478.442 103.694 476.749 103.28 474.832 103.28C472.89 103.28 471.15 103.718 469.612 104.594C468.073 105.446 466.853 106.618 465.954 108.109C465.054 109.577 464.581 111.246 464.533 113.116V123.379C464.533 125.605 464.971 127.558 465.847 129.239C466.723 130.896 467.966 132.186 469.576 133.109C471.186 134.033 473.103 134.494 475.329 134.494C476.868 134.494 478.264 134.281 479.519 133.855C480.774 133.429 481.851 132.802 482.751 131.973C483.65 131.144 484.325 130.126 484.775 128.919L500.719 129.381C500.057 132.955 498.601 136.069 496.352 138.72C494.126 141.348 491.202 143.396 487.58 144.864C483.958 146.308 479.768 147.03 475.009 147.03ZM509.766 146V73.2727H540.093C545.538 73.2727 550.095 74.0421 553.765 75.581C557.458 77.1198 560.228 79.2741 562.074 82.044C563.944 84.8139 564.88 88.0218 564.88 91.6676C564.88 94.4375 564.3 96.9115 563.14 99.0895C561.98 101.244 560.382 103.031 558.346 104.452C556.31 105.872 553.954 106.866 551.279 107.435V108.145C554.214 108.287 556.925 109.08 559.411 110.524C561.92 111.968 563.933 113.981 565.448 116.561C566.963 119.118 567.721 122.148 567.721 125.652C567.721 129.558 566.726 133.05 564.738 136.128C562.749 139.182 559.873 141.597 556.108 143.372C552.344 145.124 547.775 146 542.401 146H509.766ZM527.344 131.831H538.211C542.022 131.831 544.828 131.109 546.627 129.665C548.45 128.221 549.361 126.208 549.361 123.628C549.361 121.758 548.923 120.148 548.047 118.798C547.171 117.425 545.928 116.372 544.319 115.638C542.709 114.88 540.779 114.501 538.53 114.501H527.344V131.831ZM527.344 103.173H537.074C538.992 103.173 540.696 102.854 542.188 102.214C543.679 101.575 544.839 100.652 545.668 99.4446C546.52 98.2372 546.946 96.7812 546.946 95.0767C546.946 92.6383 546.082 90.7206 544.354 89.3239C542.626 87.9271 540.294 87.2287 537.358 87.2287H527.344V103.173ZM576.172 146V91.4545H593.537V146H576.172ZM584.873 85.098C582.434 85.098 580.339 84.2931 578.587 82.6832C576.835 81.0497 575.959 79.0848 575.959 76.7884C575.959 74.5156 576.835 72.5743 578.587 70.9645C580.339 69.331 582.434 68.5142 584.873 68.5142C587.335 68.5142 589.43 69.331 591.158 70.9645C592.91 72.5743 593.786 74.5156 593.786 76.7884C593.786 79.0848 592.91 81.0497 591.158 82.6832C589.43 84.2931 587.335 85.098 584.873 85.098ZM630.052 147.03C624.323 147.03 619.398 145.858 615.279 143.514C611.183 141.147 608.023 137.856 605.798 133.642C603.596 129.404 602.495 124.492 602.495 118.905C602.495 113.294 603.596 108.382 605.798 104.168C608.023 99.9299 611.183 96.6392 615.279 94.2955C619.398 91.928 624.323 90.7443 630.052 90.7443C635.781 90.7443 640.693 91.928 644.789 94.2955C648.908 96.6392 652.069 99.9299 654.271 104.168C656.496 108.382 657.609 113.294 657.609 118.905C657.609 124.492 656.496 129.404 654.271 133.642C652.069 137.856 648.908 141.147 644.789 143.514C640.693 145.858 635.781 147.03 630.052 147.03ZM630.158 133.926C632.242 133.926 634.005 133.287 635.45 132.009C636.894 130.73 637.995 128.955 638.752 126.682C639.533 124.409 639.924 121.781 639.924 118.798C639.924 115.768 639.533 113.116 638.752 110.844C637.995 108.571 636.894 106.795 635.45 105.517C634.005 104.239 632.242 103.599 630.158 103.599C628.004 103.599 626.181 104.239 624.69 105.517C623.222 106.795 622.097 108.571 621.316 110.844C620.558 113.116 620.18 115.768 620.18 118.798C620.18 121.781 620.558 124.409 621.316 126.682C622.097 128.955 623.222 130.73 624.69 132.009C626.181 133.287 628.004 133.926 630.158 133.926Z" fill="black"/>
<defs>
<linearGradient id="paint0_linear_292_10" x1="109.5" y1="0" x2="109.5" y2="219" gradientUnits="userSpaceOnUse">
<stop stop-color="#F0407B"/>
<stop offset="1" stop-color="#531F8F"/>
</linearGradient>
<clipPath id="clip0_292_10">
<rect width="219" height="219" fill="white"/>
</clipPath>
</defs>
</svg>
