<svg width="45" height="45" viewBox="0 0 45 45" fill="none" xmlns="http://www.w3.org/2000/svg">
                    <g clip-path="url(#clip0_208_35)">
                    <path d="M45.0011 22.5C45.0011 34.926 34.9271 45 22.5 45H22.4579C10.0508 44.9767 1.52588e-05 34.9093 1.52588e-05 22.5C1.52588e-05 10.0907 10.0508 0.0221773 22.4579 0H22.5C34.9271 0 45.0011 10.0707 45.0011 22.5Z" fill="black"/>
                    <path d="M22.4579 0V45C10.0508 44.9767 1.52588e-05 34.9093 1.52588e-05 22.5C1.52588e-05 10.0907 10.0508 0.0221773 22.4579 0V0Z" fill="#0C0C0C"/>
                    <path d="M34.743 16.2715L34.7153 20.881C33.817 20.8701 32.9234 20.7502 32.054 20.524C30.7128 20.1736 29.4478 19.5785 28.3227 18.7687C28.3227 19.2399 28.3293 19.9429 28.3293 20.7979C28.3293 21.9356 28.3293 22.582 28.3227 23.2684C28.3027 27.5087 28.4081 28.3293 28.0355 30.0059C27.958 30.4102 27.852 30.8086 27.7183 31.1979C27.002 33.1939 25.4407 34.7929 23.8495 35.6434C23.4055 35.8794 22.9394 36.0715 22.4579 36.2167C19.4506 37.1282 15.8368 36.3276 13.9717 34.1098L13.9595 34.0965L13.9451 34.0777C12.3605 32.166 12.0146 29.1853 11.9813 28.4224C11.9813 28.3249 11.9747 28.2295 11.9747 28.2295C11.9502 27.1874 12.1002 26.1485 12.4182 25.1557C12.7398 24.1289 13.7987 21.9855 16.1773 20.6837C17.6607 19.8846 19.3538 19.5606 21.0274 19.7555L20.9731 24.4205C20.8789 24.3962 18.6001 23.8561 17.1043 25.4085C15.7492 26.8146 15.8368 29.08 16.7982 30.363C16.8492 30.4317 16.9036 30.4982 16.9601 30.5603C17.4979 31.1602 18.1799 31.3853 18.6401 31.5428C19.2502 31.7438 19.8907 31.8376 20.5329 31.82C21.2209 31.8093 21.8901 31.5943 22.4557 31.2024C24.0192 30.1401 24.2298 28.2484 24.2376 28.1408C24.2184 22.0509 24.2003 15.961 24.1833 9.87112V9.86557L27.114 9.81346H27.1617L27.5864 9.80569C27.8995 10.9327 28.4303 11.9875 29.1488 12.9105C29.3751 13.1992 29.6196 13.4733 29.8806 13.7311C30.8669 14.691 32.0516 15.423 33.3514 15.8756H33.3602C33.8111 16.0404 34.2732 16.1727 34.743 16.2715V16.2715Z" fill="#FD2854"/>
                    <path d="M33.4179 18.3573H33.409C31.8307 18.6101 30.215 18.4874 28.693 17.9991C27.6302 17.6535 26.6326 17.133 25.7412 16.4589C26.2757 19.6896 26.2757 22.9862 25.7412 26.2169C25.1081 30.0137 24.7111 32.3933 22.592 33.9158C22.5477 33.9479 22.5022 33.9801 22.4568 34.01C19.5305 35.9916 15.4421 35.008 13.944 34.0754L13.9218 34.0621L13.8797 34.0355C13.3859 33.7084 12.9227 33.3373 12.4958 32.9267C11.7306 32.1843 11.1199 31.2978 10.6991 30.3182C10.2783 29.3386 10.0557 28.2854 10.0441 27.2193C10.0156 26.1151 10.199 25.0156 10.5841 23.9803C10.8336 23.315 11.7606 20.9487 14.3432 19.5083C15.9969 18.6015 17.9078 18.2781 19.7678 18.5901C19.7604 18.9597 19.7534 19.3294 19.7467 19.699V19.7068L19.7034 22.0465C18.894 21.8557 18.0574 21.8092 17.2318 21.909C16.5665 21.991 15.9145 22.0675 15.2214 22.5033C14.3338 23.0746 13.7056 23.9712 13.4716 25.0005C13.3235 25.499 13.2932 26.0251 13.3829 26.5374C13.4095 26.6837 13.6047 27.7006 14.4252 28.4302C14.7014 28.6753 14.8189 28.6852 15.2214 29.0611C15.5763 29.3938 15.665 29.5535 15.9899 29.8296C15.9899 29.8296 16.0697 29.8972 16.2005 29.9926C16.2089 29.9999 16.2178 30.0065 16.2272 30.0126C16.4061 30.1434 16.5939 30.2616 16.7894 30.3663C17.6021 30.7921 19.057 30.8376 20.1237 30.3197C21.5996 29.6023 22.4046 27.9523 22.4013 26.972C22.3836 20.8799 22.3655 14.7882 22.347 8.69682H22.449L26.9754 8.67021C26.9721 9.02328 27.0211 9.37489 27.1207 9.71365C27.1317 9.75025 27.1428 9.78462 27.155 9.82454C27.1672 9.86446 27.175 9.88331 27.185 9.91103C27.2552 10.0953 27.3363 10.2753 27.4278 10.4499L27.491 10.5775V10.5874C27.49 10.5903 27.49 10.5934 27.491 10.5963L27.501 10.6174L27.511 10.6373C27.517 10.6502 27.5236 10.6628 27.5309 10.675C27.5376 10.6895 27.5454 10.7039 27.5531 10.7183C27.5953 10.7992 27.6529 10.9057 27.7183 11.0254C27.7594 11.0997 27.8026 11.174 27.847 11.2472L27.8946 11.3259C27.9179 11.3659 27.9423 11.4058 27.9667 11.4446L28.0554 11.5854C28.4003 12.1299 29.0057 13.0469 29.864 13.7399C31.0704 14.7135 32.4565 14.9885 33.3259 15.0706C33.3314 15.3434 33.3381 15.6161 33.3436 15.8889C33.3761 16.7124 33.4009 17.5352 33.4179 18.3573Z" fill="#24F6FA"/>
                    <path d="M33.4323 19.6602C31.1475 19.744 28.9042 19.0336 27.0841 17.6498V27.4078C27.0619 27.7815 26.7348 31.9032 23.0112 34.1719C22.8271 34.2828 22.6419 34.3859 22.4568 34.4813C18.9539 36.2688 15.5308 34.8683 15.1926 34.723C14.8563 34.6131 14.534 34.4642 14.2323 34.2795C14.1381 34.2207 14.046 34.1597 13.9584 34.0965L13.8797 34.0377C11.5954 32.3035 11.5012 28.7706 11.4868 28.2495C11.4623 27.2073 11.6123 26.1684 11.9303 25.1757C12.3073 23.9726 13.4328 21.9445 15.6894 20.7036C16.9345 20.026 18.3338 19.6822 19.7511 19.7057V19.7134C19.7327 20.8851 19.7142 22.0572 19.6957 23.2296C19.4573 23.1653 17.9958 22.7972 16.5676 23.6965C15.68 24.2678 15.0518 25.1643 14.8178 26.1936C14.6778 26.6932 14.6475 27.2171 14.7291 27.7294C14.8557 28.362 15.1542 28.9475 15.5918 29.4215C15.7757 29.6334 15.9812 29.8255 16.205 29.9948C16.2134 30.0021 16.2223 30.0088 16.2316 30.0148C16.4073 30.1503 16.5955 30.2688 16.7938 30.3685L16.8004 30.3741C17.1967 30.9724 17.7683 31.4336 18.4369 31.6944C19.1054 31.9553 19.8383 32.003 20.5351 31.8311C20.8597 31.7634 21.1751 31.6569 21.4743 31.514C21.8368 31.3416 22.1689 31.1117 22.4579 30.8331C23.5801 29.7542 23.7442 28.2617 23.7519 28.1718L23.7031 9.88776L24.191 9.87778L27.1218 9.82011H27.1639C27.175 9.84894 27.1872 9.87778 27.1994 9.90661C27.267 10.0696 27.348 10.2504 27.4422 10.4455L27.5054 10.573V10.583C27.5044 10.5859 27.5044 10.589 27.5054 10.5919L27.5154 10.613L27.5254 10.6329C27.5314 10.6458 27.5381 10.6584 27.5454 10.6706C27.552 10.685 27.5598 10.6994 27.5675 10.7139C27.6185 10.8137 27.6784 10.9168 27.7328 11.021C27.7738 11.0953 27.817 11.1696 27.8614 11.2428L27.9091 11.3215L27.9811 11.4402L28.0698 11.581C28.5771 12.3743 29.185 13.0985 29.8784 13.7355C30.8904 14.662 32.0678 15.3896 33.3492 15.8801H33.358C33.3724 16.7017 33.3869 17.5256 33.4002 18.3473L33.4323 19.6602Z" fill="white"/>
                    <path opacity="0.17" d="M34.743 16.2715L34.7153 20.881C33.817 20.8701 32.9234 20.7502 32.054 20.524C30.7127 20.1736 29.4478 19.5785 28.3227 18.7687C28.3227 19.2399 28.3293 19.9429 28.3293 20.7979C28.3293 21.9356 28.3293 22.582 28.3227 23.2684C28.3027 27.5087 28.408 28.3293 28.0355 30.0059C27.958 30.4102 27.852 30.8086 27.7183 31.1979C27.002 33.1939 25.4407 34.7929 23.8495 35.6434C23.4054 35.8794 22.9393 36.0715 22.4579 36.2167V8.69682L26.9843 8.67021C26.981 9.02328 27.03 9.37489 27.1295 9.71365C27.1406 9.75025 27.1517 9.78462 27.1639 9.82454L27.5886 9.81678C27.9018 10.9438 28.4325 11.9986 29.151 12.9216C29.3774 13.2103 29.6218 13.4844 29.8828 13.7422C31.0893 14.7157 32.4754 14.9907 33.3447 15.0728C33.3503 15.3456 33.3569 15.6184 33.3625 15.8911C33.813 16.0506 34.2744 16.1777 34.743 16.2715V16.2715Z" fill="black"/>
                    </g>
                    <defs>
                    <clipPath id="clip0_208_35">
                    <rect width="45" height="45" fill="white"/>
                    </clipPath>
                    </defs>
                    </svg>