<svg width="45" height="45" viewBox="0 0 45 45" fill="none" xmlns="http://www.w3.org/2000/svg">
                  <g clip-path="url(#clip0_206_32)">
                  <path d="M35.6541 6.57848H9.34591C4.1843 6.57848 -9.53674e-06 10.7628 -9.53674e-06 15.9244V29.0757C-9.53674e-06 34.2373 4.1843 38.4216 9.34591 38.4216H35.6541C40.8157 38.4216 45 34.2373 45 29.0757V15.9244C45 10.7628 40.8157 6.57848 35.6541 6.57848ZM29.3335 23.1399L17.0283 29.0087C16.7004 29.1651 16.3217 28.9261 16.3217 28.5628V16.4583C16.3217 16.09 16.7104 15.8512 17.0389 16.0177L29.3441 22.2534C29.71 22.4387 29.7036 22.9634 29.3335 23.1399Z" fill="#F61C0D"/>
                  </g>
                  <defs>
                  <clipPath id="clip0_206_32">
                  <rect width="45" height="45" fill="white"/>
                  </clipPath>
                  </defs>
                  </svg>